<?xml version="1.0" standalone="no"?>
<!DOCTYPE svg PUBLIC "-//W3C//DTD SVG 20010904//EN"
 "http://www.w3.org/TR/2001/REC-SVG-20010904/DTD/svg10.dtd">
<svg version="1.0" xmlns="http://www.w3.org/2000/svg"
 width="512.000000pt" height="512.000000pt" viewBox="0 0 512.000000 512.000000"
 preserveAspectRatio="xMidYMid meet">

<g transform="translate(0.000000,512.000000) scale(0.100000,-0.100000)"
fill="#000000" stroke="none">
<path d="M560 4547 c-19 -6 -58 -34 -85 -62 -71 -70 -90 -144 -63 -239 10 -36
141 -171 1012 -1043 586 -588 1015 -1010 1035 -1019 49 -24 113 -29 168 -14
45 12 110 74 1050 1014 588 586 1010 1015 1019 1035 44 93 26 191 -50 266 -71
71 -145 90 -240 63 -36 -10 -160 -130 -943 -912 l-903 -901 -902 901 c-784
782 -908 902 -944 912 -50 14 -107 14 -154 -1z"/>
<path d="M560 2947 c-19 -6 -58 -34 -85 -62 -71 -70 -90 -144 -63 -239 10 -36
141 -171 1012 -1043 586 -588 1015 -1010 1035 -1019 49 -24 113 -29 168 -14
45 12 110 74 1050 1014 588 586 1010 1015 1019 1035 44 93 26 191 -50 266 -71
71 -145 90 -240 63 -36 -10 -160 -130 -943 -912 l-903 -901 -902 901 c-784
782 -908 902 -944 912 -50 14 -107 14 -154 -1z"/>
</g>
</svg>
